<svg width="265" height="283" viewBox="0 0 265 283" fill="none" xmlns="http://www.w3.org/2000/svg">
<path d="M239.949 209.897C240.963 208.5 241.943 207.081 242.9 205.645C244.899 202.639 246.77 199.561 248.519 196.406C252.038 190.049 255.033 183.404 257.455 176.552C262.461 162.415 265 147.438 265 132.444C265 59.2979 205.678 0 132.503 0C59.3275 0 0 59.2979 0 132.444C0 205.589 59.322 264.887 132.503 264.887C132.62 264.887 165.521 266.022 189.62 268.555C194.219 269.039 198.807 269.651 203.384 270.342C222.894 273.269 242.516 277.154 261.576 282.302C260.451 274.349 236.38 215.903 236.603 214.4C236.798 213.109 239.164 210.982 239.949 209.897ZM132.503 150.076C122.436 150.076 114.273 141.916 114.273 131.854C114.273 121.791 122.436 113.637 132.503 113.637C142.57 113.637 150.727 121.791 150.727 131.854C150.727 141.916 142.564 150.076 132.503 150.076Z" fill="#4B29F2"/>
<path d="M132.503 79.0119C102.981 79.0119 79.0496 102.934 79.0496 132.443C79.0496 161.953 102.981 185.875 132.503 185.875C162.025 185.875 185.956 161.953 185.956 132.443C185.956 102.934 162.025 79.0119 132.503 79.0119ZM132.503 150.076C122.436 150.076 114.273 141.916 114.273 131.854C114.273 121.791 122.436 113.637 132.503 113.637C142.57 113.637 150.727 121.791 150.727 131.854C150.727 141.916 142.564 150.076 132.503 150.076Z" fill="#ED52BB"/>
<path d="M92.2569 220.889C91.5943 220.889 90.9206 220.745 90.2858 220.439C80.5473 215.763 71.7108 209.53 64.0102 201.916C62.2228 200.146 62.2061 197.257 63.9768 195.47C65.7474 193.684 68.6372 193.667 70.4246 195.437C77.4013 202.339 85.4138 207.982 94.2335 212.223C96.5053 213.314 97.4574 216.036 96.3661 218.307C95.581 219.938 93.9496 220.889 92.2513 220.889H92.2569Z" fill="#7BDEF4"/>
<path d="M51.6493 182.831C50.0568 182.831 48.5089 181.996 47.6681 180.504C45.53 176.703 43.6369 172.712 42.0333 168.643C41.109 166.3 42.2616 163.656 44.6057 162.733C46.9499 161.814 49.5947 162.961 50.519 165.304C51.9722 168.988 53.6872 172.595 55.6193 176.035C56.8554 178.228 56.0759 181.011 53.8765 182.241C53.1694 182.636 52.401 182.825 51.6493 182.825V182.831Z" fill="#7BDEF4"/>
<path d="M42.4619 117.232C42.1111 117.232 41.7547 117.193 41.3928 117.104C38.9428 116.52 37.4339 114.054 38.0241 111.611C44.3272 85.3236 61.1371 62.6708 84.1387 49.4576C86.3214 48.2053 89.1109 48.9567 90.3638 51.1385C91.6166 53.3203 90.8649 56.1087 88.6822 57.361C67.8466 69.3275 52.6124 89.8764 46.8885 113.731C46.3873 115.824 44.5165 117.227 42.4563 117.227L42.4619 117.232Z" fill="#7BDEF4"/>
<path d="M221.953 160.896C221.575 160.896 221.191 160.851 220.812 160.751C218.373 160.122 216.909 157.634 217.538 155.196C219.375 148.089 220.305 140.731 220.305 133.323C220.305 126.978 219.598 120.577 218.195 114.294C217.649 111.833 219.197 109.401 221.653 108.856C224.114 108.31 226.547 109.858 227.093 112.312C228.635 119.241 229.42 126.31 229.42 133.323C229.42 141.499 228.39 149.625 226.363 157.478C225.834 159.532 223.98 160.896 221.953 160.896Z" fill="#7BDEF4"/>
<path d="M133.466 229.978C130.972 229.978 128.939 227.975 128.906 225.476C128.872 222.96 130.888 220.89 133.41 220.862C159.335 220.533 184.614 208.227 201.034 187.934C202.621 185.975 205.489 185.675 207.449 187.255C209.409 188.836 209.709 191.708 208.128 193.667C190.021 216.042 162.13 229.617 133.527 229.978H133.466Z" fill="#7BDEF4"/>
<path d="M202.298 77.7207C201.029 77.7207 199.77 77.1975 198.868 76.1678C184.18 59.4259 162.988 48.517 140.727 46.2406C138.221 45.9846 136.4 43.7471 136.656 41.2425C136.913 38.7379 139.145 36.9179 141.657 37.1739C166.184 39.6785 189.536 51.7006 205.728 70.1568C207.387 72.0492 207.198 74.9322 205.305 76.5908C204.442 77.3478 203.367 77.7207 202.298 77.7207Z" fill="#7BDEF4"/>
</svg>
